# xmcd
#
# Track frame offsets:
# 150
# 7791
# 34200
# 58109
# 74511
# 91194
# 115146
# 138776
# 156797
# 165551
# 181214
# 197577
# 213466
# 230209
# 249119
# 262233
# 282033
# 312274
#
# Disc length: 4387 seconds
#
#
# Revision: 3
# Processed by: cddbd v1.5.2PL0 Copyright (c) Steve Scherf et al.
# Submitted via: FreeRIP 2.951 
#
DISCID=f6112112
DTITLE=Various Artist - Paris Lounge 2 [CD 1 - Paris By Day 12.00 P.M)
DYEAR=2001
DGENRE=Acoustic
TTITLE0=Slove Tempo  -  PLAISIR DE FRANCE
TTITLE1=Sugar  -  ZIMPALA feat BENJA and FATALIS
TTITLE2=C'est Presque ca  -  ROUGE ROUGE
TTITLE3=Tempovision  -  ETIENNE DE CRECY
TTITLE4=La Fugitive  -  WILLIAMS TRAFFIC
TTITLE5=Westernsize  -  AVIA
TTITLE6=Lo-Fi Nu Jazz #11  -  AUBIN STEINER
TTITLE7=Your Love  -  SHAZZ
TTITLE8=Innerlude  -  COCO SUMA
TTITLE9=Sick Coesar  -  CURTIS
TTITLE10=I Guess You Always Knew  -  PATCHWORKS
TTITLE11=Motherless Child  -  BRADY
TTITLE12=Mr Twist Laser  -  BERTRAND BURGALAT
TTITLE13=Transcontinental  -  READYMADE
TTITLE14=Eggs  -  GINKGO
TTITLE15=London In The Rain  -  VARIETY LAB
TTITLE16=Ralph And Kathy  -  ALEX GOPHER
TTITLE17=Gloss  -  BOX OHM
EXTD=YEAR: 2001
EXTT0=
EXTT1=
EXTT2=
EXTT3=
EXTT4=
EXTT5=
EXTT6=
EXTT7=
EXTT8=
EXTT9=
EXTT10=
EXTT11=
EXTT12=
EXTT13=
EXTT14=
EXTT15=
EXTT16=
EXTT17=
PLAYORDER=
